<svg width="30" height="30" viewBox="0 0 30 30" fill="none" xmlns="http://www.w3.org/2000/svg">
<g clip-path="url(#clip0_513:43474)">
<path d="M15 15.5C15 14.5717 15.3687 13.6815 16.0251 13.0251C16.6815 12.3687 17.5717 12 18.5 12C19.4283 12 20.3185 12.3687 20.9749 13.0251C21.6313 13.6815 22 14.5717 22 15.5C22 16.4283 21.6313 17.3185 20.9749 17.9749C20.3185 18.6313 19.4283 19 18.5 19C17.5717 19 16.6815 18.6313 16.0251 17.9749C15.3687 17.3185 15 16.4283 15 15.5Z" fill="#1ABCFE"/>
<path d="M8 22.5C8 21.5717 8.36875 20.6815 9.02513 20.0251C9.6815 19.3687 10.5717 19 11.5 19H15V22.5C15 23.4283 14.6313 24.3185 13.9749 24.9749C13.3185 25.6313 12.4283 26 11.5 26C10.5717 26 9.6815 25.6313 9.02513 24.9749C8.36875 24.3185 8 23.4283 8 22.5V22.5Z" fill="#0ACF83"/>
<path d="M15 5V12H18.5C19.4283 12 20.3185 11.6313 20.9749 10.9749C21.6313 10.3185 22 9.42826 22 8.5C22 7.57174 21.6313 6.6815 20.9749 6.02513C20.3185 5.36875 19.4283 5 18.5 5H15Z" fill="#FF7262"/>
<path d="M8 8.5C8 9.42826 8.36875 10.3185 9.02513 10.9749C9.6815 11.6313 10.5717 12 11.5 12H15V5H11.5C10.5717 5 9.6815 5.36875 9.02513 6.02513C8.36875 6.6815 8 7.57174 8 8.5V8.5Z" fill="#F24E1E"/>
<path d="M8 15.5C8 16.4283 8.36875 17.3185 9.02513 17.9749C9.6815 18.6313 10.5717 19 11.5 19H15V12H11.5C10.5717 12 9.6815 12.3687 9.02513 13.0251C8.36875 13.6815 8 14.5717 8 15.5V15.5Z" fill="#A259FF"/>
</g>
<defs>
<clipPath id="clip0_513:43474">
<rect width="14" height="21" fill="white" transform="translate(8 5)"/>
</clipPath>
</defs>
</svg>
