<svg width="175" height="85" viewBox="0 0 175 85" fill="none" xmlns="http://www.w3.org/2000/svg">
<path d="M96.5321 58.4999C95.0313 58.9999 90.7674 63.9699 92.0321 66.4998C93.5318 69.4998 97.5333 65.9999 98.5333 61.9999C98.7007 61.3332 98.935 59.8999 98.5333 59.4999C98.0313 58.9999 103.031 57.9999 106.531 58.4999C109.465 58.9189 104.32 58.9867 103.461 62.53C103.076 64.1153 104.429 65.5344 105.835 64.7077C108.859 62.9303 113.4 57.6228 114.531 57.9998C116.031 58.4998 112.531 63.9998 111.031 67.9998C109.302 72.6107 120.531 55.9998 121.531 55.9998C122.531 55.9998 119.031 61.4998 119.531 64.4998C120.115 67.9998 125.531 61.4998 127.531 57.4998C127.602 57.359 127.664 57.2341 127.718 57.1243M127.718 57.1243C128.195 56.158 128.07 56.3565 127.718 57.1243ZM127.718 57.1243C126.974 58.7483 125.221 62.9194 126.031 63.9998C127.531 65.9998 133.031 57.9998 135.531 56.9998C136.531 56.9998 131.884 59.7203 135.531 61.9999C139.531 64.4998 136.531 56.7498 137.031 56.9998C138.849 57.9089 139.198 59.9198 140.081 61.4744C141.303 63.6239 144.345 63.3679 146.482 62.1266C148.825 60.7663 151.339 58.4667 153.544 55.1377M153.544 55.1377C153.607 55.0425 153.669 54.9464 153.732 54.8495M153.544 55.1377C154.354 49.9335 156.006 39.7665 157.63 32.4634M153.544 55.1377C153.22 57.2136 153.031 58.4998 153.031 58.4998M153.732 54.8495C154.877 53.0753 155.934 51.0182 156.833 48.665M153.732 54.8495C153.433 56.141 153.21 57.4285 153.031 58.4998M153.732 54.8495C154.349 52.1832 155.291 49.4997 156.833 48.665M156.833 48.665C157.493 46.9378 158.068 45.0511 158.531 42.9998C159.363 39.3169 160.053 36.2832 160.589 33.8049M156.833 48.665C157.333 48.3945 157.896 48.3182 158.531 48.4998C162.031 49.4998 156.531 55.4998 153.031 58.4998M160.589 33.8049C162.309 25.8531 162.437 23.6188 160.531 24C159.737 24.159 158.689 27.7027 157.63 32.4634M160.589 33.8049C167.474 37.4254 172.353 43.573 173.531 47.5C175.131 55.5 167.031 61.9999 161.531 63.4998C153.931 66.6998 152.698 61.1665 153.031 58.4998M160.589 33.8049C159.64 33.3055 158.652 32.8542 157.63 32.4634M157.63 32.4634C156.628 32.0801 155.594 31.755 154.531 31.5C148.698 30.6667 135.631 29.8 130.031 33C123.031 37 127.031 43 131.531 44C136.031 45 146.531 44.5 147.531 44.5M46.5312 24.5C74.0312 24 78.6903 21.6024 93.5312 19.5C107.531 17.5168 106.531 17 128.531 16M8.53112 13C7.36446 15 4.53112 19.1 2.53112 19.5C0.031124 20 7.03112 13 9.53112 11C12.0311 8.99999 14.5312 7.99999 16.0312 7.99999C17.5312 7.99999 18.0312 9.99999 18.0312 12C18.0312 14 16.5312 22 15.5312 24.5C14.7312 26.5 8.031 43 8.53112 43.5C9.03125 43.9999 23.4312 6.59999 25.0312 4.99999C27.0312 2.99999 27.5312 6 27.5312 7.49999C27.5312 23.5 22.5312 37.4999 23.0312 37.9999C23.5312 38.4999 36.5312 6.00003 37.5312 4.99999C40.0312 3.49994 39.0312 17.4999 37.5312 25.9999C36.0312 34.4999 32.5312 54.9999 35.0312 59.9999C37.5312 64.9999 45.5312 59.9999 47.5312 55.9999M45.5336 29C43.2003 31 38.4869 35.9326 40.5341 39C42.5363 42 47.5327 28 48.0327 28C48.5327 28 46.8097 41.2356 48.0327 42C52.0327 44.5 57.0327 21 57.5327 21C58.0327 21 53.5327 41 56.0327 40C60.8123 38.0882 62.0327 22.5 62.5327 22.5C63.0327 22.5 59.8088 38.9692 64.0327 37.5C75.5327 33.5 74.2585 2 75.0327 2C75.8069 2 72.0327 36 72.5327 36C73.0327 36 76.8327 24.2 80.0327 23C84.0327 21.5 80.5342 34 80.5327 36C80.5312 38 82.5312 38 83.5312 37.5C85.4589 36.5362 88.0092 34.1463 90.2729 31.7475M90.2729 31.7475C91.7228 30.2112 93.0552 28.6713 94.0312 27.5C94.5312 26.5 94.4313 24.5 92.0312 26.5C91.5312 27 90.4313 28.3 90.0312 29.5C89.8412 30.0701 89.9401 30.9291 90.2729 31.7475ZM90.2729 31.7475C90.8159 33.0826 91.9814 34.31 93.5312 34C95.5312 33.6 99.4313 30.6 101.031 29C100.865 28.6667 101.431 28.1 105.031 28.5C109.531 29 108.531 27 108.531 26.5C108.531 26 111.031 25.5 112.031 25.5C113.031 25.5 113.531 24 115.031 23.5C116.531 23 116.031 22.5 117.531 22.5M58.5322 54.4997C55.6989 54.833 51.4322 54.4997 57.0322 50.4997C64.0322 45.4997 64.5312 50.9997 64.0312 51.9997C62.4578 55.8209 59.596 62.5826 57.2856 67.5627M57.2856 67.5627C56.1698 69.9679 55.1826 71.9575 54.5312 72.9997C53.7269 74.2867 55.0447 71.6916 57.2856 67.5627ZM57.2856 67.5627C62.0096 58.8589 70.8356 43.3388 72.5312 42.9997C75.0312 42.4997 68.7371 66.5288 69.0312 67.9996C69.5312 70.4996 88.5312 39.9994 89.5312 42.9997C90.4665 45.8057 85.2789 60.42 85.8303 75.7987C85.9062 77.9171 86.2103 80.2521 87.8172 81.6346C88.9226 82.5855 90.7116 83.2213 94.0312 83C99.9809 82.6034 101.014 80.5352 101.519 79.5254L101.531 79.5" stroke="#374151" stroke-width="2.5" stroke-linecap="round"/>
</svg>
