<svg width="30" height="30" viewBox="0 0 30 30" fill="none" xmlns="http://www.w3.org/2000/svg">
<path d="M21.6626 10.6481C20.8144 10.8788 20.0448 11.3358 19.4362 11.9702C18.7373 9.48081 17.2134 5.72325 15.7327 5.09999C15.5749 5.02693 15.4017 4.99303 15.228 5.00119C15.0543 5.00934 14.8851 5.0593 14.7348 5.14683C13.8053 5.67281 13.1928 7.4273 13.7296 10.7273C11.6797 6.98057 10.9664 6.98418 10.635 6.98418C10.4793 6.98925 10.3285 7.03922 10.2007 7.12807C10.0728 7.21693 9.97342 7.34086 9.91443 7.48494C9.69106 7.9785 9.26595 9.51683 10.3287 12.8169C9.02818 11.0371 8.62828 10.8102 8.16715 10.8282C8.01977 10.8362 7.87733 10.884 7.75491 10.9665C7.6325 11.0489 7.53468 11.163 7.47184 11.2965C7.07555 12.0171 7.11157 13.8868 8.34007 16.6465C7.92768 16.2771 7.40144 16.0597 6.84858 16.0304C6.69976 16.0402 6.55578 16.0872 6.42988 16.1671C6.30398 16.2471 6.20019 16.3574 6.12805 16.4879C5.62728 17.3922 6.67205 19.9321 7.92937 21.6469C8.95973 23.0592 11.0385 25.2316 14.0539 25.2316C14.4736 25.2321 14.8923 25.1911 15.304 25.1091C15.3749 25.0953 15.4425 25.0678 15.5028 25.0279C15.5631 24.9881 15.615 24.9368 15.6555 24.8769C15.696 24.817 15.7243 24.7498 15.7387 24.6789C15.7532 24.6081 15.7536 24.5352 15.7399 24.4642C15.7262 24.3932 15.6986 24.3257 15.6588 24.2653C15.6189 24.205 15.5676 24.1531 15.5077 24.1127C15.4479 24.0722 15.3806 24.0439 15.3098 24.0294C15.239 24.0149 15.166 24.0145 15.095 24.0283C12.5948 24.511 10.7106 23.1384 9.56857 21.9027C7.85732 20.0618 7.11157 17.8461 7.06834 17.1724C7.4286 17.3129 8.45175 17.9218 10.4584 20.4905C10.5458 20.6039 10.6739 20.6789 10.8157 20.6996C10.9574 20.7202 11.1016 20.6849 11.2177 20.601C11.3338 20.5172 11.4128 20.3915 11.4378 20.2505C11.4629 20.1095 11.432 19.9643 11.3519 19.8456C8.53462 15.5765 8.26081 13.0006 8.35448 12.1215C9.17949 12.9646 11.2366 16.0628 12.8037 18.3973C12.8846 18.5103 13.005 18.5885 13.1411 18.6165C13.2771 18.6444 13.4186 18.62 13.5374 18.5481C13.6562 18.4762 13.7435 18.3621 13.7818 18.2286C13.8201 18.0951 13.8066 17.9521 13.744 17.8281C10.5017 11.8766 10.6133 9.15657 10.8043 8.26672C11.287 8.75667 12.584 10.4751 15.304 16.3943C15.3671 16.5172 15.474 16.612 15.6037 16.6598C15.7334 16.7076 15.8763 16.705 16.0041 16.6524C16.1319 16.5998 16.2353 16.5012 16.2938 16.376C16.3523 16.2507 16.3616 16.1081 16.3199 15.9764C13.6828 8.77108 14.8284 6.35732 15.2643 6.10513C15.8336 6.10513 17.4439 8.84314 18.4239 12.4278C18.4851 12.6511 18.5428 12.8673 18.5968 13.0798C18.458 13.3254 18.3492 13.5866 18.2726 13.858C17.725 15.8431 17.2134 20.3716 18.2365 21.5749C18.3416 21.7032 18.4769 21.8034 18.6304 21.8663C18.7839 21.9292 18.9506 21.9529 19.1156 21.9351C19.3249 21.9123 19.5264 21.8429 19.7054 21.7319C19.8843 21.6209 20.0361 21.4712 20.1495 21.2939C21.1186 19.8852 20.553 16.3402 19.7893 13.2384C20.3094 12.4989 21.0611 11.9538 21.9256 11.6892C22.112 11.6268 22.3121 11.618 22.5032 11.6639C22.6943 11.7098 22.8687 11.8084 23.0064 11.9486C23.4495 12.4422 24.2241 14.3047 21.8788 20.8688C21.8348 21.0049 21.8458 21.1529 21.9095 21.281C21.9732 21.4091 22.0845 21.5073 22.2197 21.5543C22.3548 21.6014 22.503 21.5937 22.6325 21.5329C22.762 21.4721 22.8626 21.363 22.9128 21.229C24.7861 15.9944 25.0743 12.6223 23.8278 11.2029C23.5533 10.9195 23.2057 10.7176 22.8236 10.6197C22.4414 10.5218 22.0396 10.5316 21.6626 10.6481ZM19.2453 20.6994C19.204 20.7745 19.1357 20.8312 19.0543 20.8579C18.6544 20.3788 18.6508 17.5255 19.094 15.191C19.9334 19.2223 19.4434 20.4076 19.2453 20.6994Z" fill="url(#paint0_linear_544_42836)"/>
<defs>
<linearGradient id="paint0_linear_544_42836" x1="-30.2384" y1="573.102" x2="2289.95" y2="573.102" gradientUnits="userSpaceOnUse">
<stop stop-color="#0074E4"/>
<stop offset="1" stop-color="#5522FA"/>
</linearGradient>
</defs>
</svg>
