<svg width="30" height="30" viewBox="0 0 30 30" fill="none" xmlns="http://www.w3.org/2000/svg">
<path d="M20.0066 14.1966C19.9165 14.1512 19.8249 14.1074 19.7322 14.0656C19.5707 10.9367 17.9448 9.14536 15.2147 9.12703C15.2023 9.12695 15.19 9.12695 15.1776 9.12695C13.5446 9.12695 12.1865 9.85989 11.3506 11.1936L12.8521 12.2767C13.4766 11.2804 14.4566 11.0681 15.1783 11.0681C15.1867 11.0681 15.195 11.0681 15.2033 11.0681C16.1022 11.0742 16.7806 11.349 17.2196 11.8849C17.5391 12.2751 17.7528 12.8143 17.8586 13.4948C17.0616 13.3524 16.1996 13.3086 15.2782 13.3641C12.6825 13.5213 11.0138 15.1132 11.1259 17.3251C11.1827 18.4471 11.7143 19.4124 12.6226 20.0429C13.3906 20.576 14.3796 20.8366 15.4076 20.7776C16.7651 20.6994 17.83 20.1548 18.573 19.1589C19.1372 18.4027 19.4941 17.4226 19.6517 16.1878C20.2986 16.5983 20.7781 17.1386 21.0429 17.788C21.4932 18.8921 21.5194 20.7062 20.1116 22.1853C18.8782 23.481 17.3956 24.0415 15.1549 24.0588C12.6694 24.0395 10.7896 23.2013 9.56745 21.5676C8.42299 20.0378 7.83152 17.8281 7.80946 15C7.83152 12.1718 8.42299 9.96218 9.56745 8.43239C10.7896 6.79869 12.6694 5.96052 15.1549 5.9411C17.6584 5.96067 19.5709 6.80287 20.8399 8.44446C21.4621 9.24947 21.9312 10.2618 22.2405 11.4422L24 10.9486C23.6251 9.49567 23.0353 8.24367 22.2326 7.20535C20.6058 5.10077 18.2266 4.02236 15.161 4H15.1487C12.0894 4.02228 9.73679 5.10479 8.15632 7.21742C6.74992 9.0974 6.02445 11.7133 6.00008 14.9923L6 15L6.00008 15.0077C6.02445 18.2867 6.74992 20.9026 8.15632 22.7826C9.73679 24.8952 12.0894 25.9778 15.1487 26H15.161C17.8809 25.9802 19.7981 25.2314 21.3775 23.5721C23.4439 21.4013 23.3817 18.6803 22.7006 17.0099C22.212 15.8121 21.2805 14.8391 20.0066 14.1966ZM15.3104 18.8393C14.1728 18.9067 12.9909 18.3698 12.9326 17.2197C12.8894 16.367 13.5097 15.4155 15.3802 15.3021C15.5944 15.2891 15.8046 15.2828 16.0111 15.2828C16.6906 15.2828 17.3262 15.3522 17.904 15.485C17.6885 18.3155 16.4242 18.7751 15.3104 18.8393Z" fill="#1e3a8a"/>
</svg>
