<svg width="31" height="30" viewBox="0 0 31 30" fill="none" xmlns="http://www.w3.org/2000/svg">
<path d="M23.4525 10.9832C23.4647 11.1567 23.4647 11.3303 23.4647 11.5055C23.4647 16.8436 19.3371 23 11.7897 23V22.9968C9.56013 23 7.3769 22.3712 5.5 21.1857C5.82419 21.2241 6.15001 21.2433 6.47664 21.2441C8.32429 21.2457 10.1191 20.6353 11.5727 19.5114C9.81688 19.4786 8.27717 18.3515 7.73928 16.706C8.35436 16.8228 8.98812 16.7988 9.59181 16.6364C7.67753 16.2556 6.30033 14.5997 6.30033 12.6767C6.30033 12.6591 6.30033 12.6423 6.30033 12.6255C6.87071 12.9382 7.50934 13.1118 8.1626 13.131C6.35964 11.9447 5.80388 9.58325 6.89265 7.73696C8.97593 10.2608 12.0497 11.7951 15.3493 11.9575C15.0186 10.5544 15.4703 9.08408 16.5364 8.09774C18.189 6.56824 20.7882 6.64663 22.3418 8.27293C23.2607 8.09454 24.1415 7.76256 24.9475 7.29219C24.6412 8.22733 24.0001 9.02168 23.1437 9.52645C23.957 9.43206 24.7517 9.21767 25.5 8.89049C24.9491 9.70324 24.2552 10.4112 23.4525 10.9832Z" fill="#1D9BF0"/>
</svg>
